<?xml version="1.0" encoding="UTF-8"?>
<svg version="1.1" viewBox="0 0 1024 1024" width="1280" height="1280" xmlns="http://www.w3.org/2000/svg">
<path transform="translate(299,78)" d="m0 0h49l25 3 26 5 30 9 24 10 16 8 18 10 12 8 12 9 4-1 14-10 21-13 17-9 19-8 19-7 26-7 27-5 19-2h49l26 3 29 6 29 9 24 10 20 10 21 13 14 10 10 8 14 12 20 20 9 11 13 17 13 20 10 18 11 26 8 24 6 26 4 27 1 11v54l-3 28-5 28-8 32-9 27-11 27-16 33-15 26-18 27-13 18-11 14-11 13-9 11-15 16-16 17-8 8-8 7-8 8-8 7-10 9-11 9-12 10-14 11-21 16-16 11-19 13-20 13-24 15-24 14-29 16-33 17-26 13-33 15-9 4-7-1-29-13-29-14-38-19-23-13-20-11-15-9-24-15-33-22-17-12-21-16-13-10-16-13-14-12-10-9-12-11-16-15-11-11-7-8-8-8-7-8-12-14-8-10-10-13-13-18-14-21-12-20-10-18-14-29-11-28-8-24-8-32-6-36-2-20v-54l3-27 6-29 7-24 10-25 8-16 9-16 13-19 11-14 12-14 20-20 11-9 17-13 17-11 18-10 21-10 24-9 24-7 25-5zm6 72-24 3-25 6-20 7-24 11-18 11-14 10-13 11-13 12-10 11-13 17-10 15-11 21-9 23-6 22-4 21-2 21v31l3 29 5 26 7 26 10 28 9 20 10 20 15 25 13 19 14 19 13 16 9 11 11 12 7 8 10 10 7 8 16 15 8 8 8 7 10 9 11 9 17 14 20 15 19 14 36 24 21 13 24 14 18 10 27 14 16 8 27 13 7-1 33-16 16-8 27-14 24-14 20-12 22-14 22-15 18-13 21-16 16-13 13-11 11-9 7-7 8-7 11-11 8-7 15-16 7-7 7-8 12-14 13-16 14-19 18-27 14-24 12-24 11-28 8-26 6-26 4-28 1-13v-31l-3-27-5-23-6-20-10-23-11-20-13-18-11-13-12-13-11-10-17-13-19-12-15-8-25-10-20-6-21-4-17-2h-39l-22 3-25 6-24 9-16 8-18 10-17 12-10 8-13 11-7 7-6 5-7 8-2 2-4-1-7-7-5-6-8-7-11-10-17-13-15-10-16-9-16-8-24-9-25-6-22-3z" fill="#fff"/>
<path transform="translate(651,299)" d="m0 0h38l22 4 20 6 21 10 12 8 11 9 14 14 11 16 4 8-22 12-20 10-19 10-9 4-8-15-9-10-7-6-13-6-14-3h-18l-12 3-12 6-10 9-9 14-6 16-4 19-1 14v13l2 19 5 21 8 17 8 10 8 7 12 6 16 4 13 1 13-2 12-5 11-9 11-13 10-14 3-1 60 30 1 4-7 13-10 13-13 13-10 9-13 9-16 9-15 6-19 5-13 2h-38l-24-4-20-6-19-9-12-8-11-9-10-10-11-15-9-16-8-20-5-19-3-18-1-11v-29l3-24 6-22 6-15 8-16 12-17 12-13 13-11 16-10 15-7 15-5 20-4z" fill="#fff"/>
<path transform="translate(356,299)" d="m0 0h37l19 3 18 5 21 9 15 9 16 13 9 9 11 15 6 10v3l-24 12-19 10-25 13-3-3-5-10-8-10-8-7-12-6-16-4h-19l-12 3-10 5-10 9-5 6-7 12-5 15-3 15-1 8v28l3 20 5 17 8 15 8 10 10 7 12 5 13 3 13 1 13-2 9-4 9-6 11-11 13-18 2-3 6 2 58 29-2 7-9 14-9 11-12 12-14 11-14 9-16 8-15 5-18 4-8 1h-37l-20-3-19-5-19-8-16-10-10-8-7-6-7-8-10-14-9-16-8-21-6-25-2-16v-39l3-20 6-23 10-23 11-17 9-11 13-13 12-9 17-10 18-7 20-5z" fill="#fff"/>
</svg>
